<svg width="247" height="39" viewBox="0 0 247 39" fill="none" xmlns="http://www.w3.org/2000/svg">
<path d="M56.244 29.182C54.528 29.182 52.9507 28.7833 51.512 27.986C50.0907 27.1887 48.9553 26.0793 48.106 24.658C47.274 23.2193 46.858 21.6073 46.858 19.822C46.858 18.0367 47.274 16.4333 48.106 15.012C48.9553 13.5907 50.0907 12.4813 51.512 11.684C52.9507 10.8867 54.528 10.488 56.244 10.488C57.96 10.488 59.5287 10.8867 60.95 11.684C62.3887 12.4813 63.5153 13.5907 64.33 15.012C65.162 16.4333 65.578 18.0367 65.578 19.822C65.578 21.6073 65.162 23.2193 64.33 24.658C63.498 26.0793 62.3713 27.1887 60.95 27.986C59.5287 28.7833 57.96 29.182 56.244 29.182ZM56.244 25.126C57.7 25.126 58.8613 24.6407 59.728 23.67C60.612 22.6993 61.054 21.4167 61.054 19.822C61.054 18.21 60.612 16.9273 59.728 15.974C58.8613 15.0033 57.7 14.518 56.244 14.518C54.7707 14.518 53.592 14.9947 52.708 15.948C51.8413 16.9013 51.408 18.1927 51.408 19.822C51.408 21.434 51.8413 22.7253 52.708 23.696C53.592 24.6493 54.7707 25.126 56.244 25.126ZM76.8915 14.336C78.5901 14.336 79.9421 14.8907 80.9475 16C81.9701 17.092 82.4815 18.6 82.4815 20.524V29H78.0615V21.122C78.0615 20.1513 77.8101 19.3973 77.3075 18.86C76.8048 18.3227 76.1288 18.054 75.2795 18.054C74.4301 18.054 73.7541 18.3227 73.2515 18.86C72.7488 19.3973 72.4975 20.1513 72.4975 21.122V29H68.0515V14.492H72.4975V16.416C72.9481 15.7747 73.5548 15.272 74.3175 14.908C75.0801 14.5267 75.9381 14.336 76.8915 14.336ZM91.083 14.284C92.1057 14.284 92.9983 14.492 93.761 14.908C94.541 15.324 95.139 15.87 95.555 16.546V14.492H100.001V28.974C100.001 30.3087 99.7323 31.5133 99.195 32.588C98.675 33.68 97.869 34.5467 96.777 35.188C95.7023 35.8293 94.359 36.15 92.747 36.15C90.5977 36.15 88.8557 35.6387 87.521 34.616C86.1863 33.6107 85.4237 32.2413 85.233 30.508H89.627C89.7657 31.0627 90.095 31.496 90.615 31.808C91.135 32.1373 91.7763 32.302 92.539 32.302C93.4577 32.302 94.1857 32.0333 94.723 31.496C95.2777 30.976 95.555 30.1353 95.555 28.974V26.92C95.1217 27.596 94.5237 28.1507 93.761 28.584C92.9983 29 92.1057 29.208 91.083 29.208C89.887 29.208 88.8037 28.9047 87.833 28.298C86.8623 27.674 86.091 26.7987 85.519 25.672C84.9643 24.528 84.687 23.2107 84.687 21.72C84.687 20.2293 84.9643 18.9207 85.519 17.794C86.091 16.6673 86.8623 15.8007 87.833 15.194C88.8037 14.5873 89.887 14.284 91.083 14.284ZM95.555 21.746C95.555 20.6367 95.243 19.7613 94.619 19.12C94.0123 18.4787 93.267 18.158 92.383 18.158C91.499 18.158 90.745 18.4787 90.121 19.12C89.5143 19.744 89.211 20.6107 89.211 21.72C89.211 22.8293 89.5143 23.7133 90.121 24.372C90.745 25.0133 91.499 25.334 92.383 25.334C93.267 25.334 94.0123 25.0133 94.619 24.372C95.243 23.7307 95.555 22.8553 95.555 21.746ZM120.609 10.748V14.31H113.173V18.158H118.737V21.616H113.173V29H108.727V10.748H120.609ZM125.182 12.984C124.402 12.984 123.761 12.7587 123.258 12.308C122.773 11.84 122.53 11.268 122.53 10.592C122.53 9.89867 122.773 9.32667 123.258 8.876C123.761 8.408 124.402 8.174 125.182 8.174C125.945 8.174 126.569 8.408 127.054 8.876C127.557 9.32667 127.808 9.89867 127.808 10.592C127.808 11.268 127.557 11.84 127.054 12.308C126.569 12.7587 125.945 12.984 125.182 12.984ZM127.392 14.492V29H122.946V14.492H127.392ZM144.29 21.512C144.29 21.928 144.264 22.3613 144.212 22.812H134.15C134.219 23.7133 134.505 24.4067 135.008 24.892C135.528 25.36 136.161 25.594 136.906 25.594C138.015 25.594 138.787 25.126 139.22 24.19H143.952C143.709 25.1433 143.267 26.0013 142.626 26.764C142.002 27.5267 141.213 28.1247 140.26 28.558C139.307 28.9913 138.241 29.208 137.062 29.208C135.641 29.208 134.375 28.9047 133.266 28.298C132.157 27.6913 131.29 26.8247 130.666 25.698C130.042 24.5713 129.73 23.254 129.73 21.746C129.73 20.238 130.033 18.9207 130.64 17.794C131.264 16.6673 132.131 15.8007 133.24 15.194C134.349 14.5873 135.623 14.284 137.062 14.284C138.466 14.284 139.714 14.5787 140.806 15.168C141.898 15.7573 142.747 16.598 143.354 17.69C143.978 18.782 144.29 20.056 144.29 21.512ZM139.74 20.342C139.74 19.5793 139.48 18.9727 138.96 18.522C138.44 18.0713 137.79 17.846 137.01 17.846C136.265 17.846 135.632 18.0627 135.112 18.496C134.609 18.9293 134.297 19.5447 134.176 20.342H139.74ZM151.081 9.76V29H146.635V9.76H151.081ZM171.175 25.776H164.363L163.271 29H158.617L165.221 10.748H170.369L176.973 29H172.267L171.175 25.776ZM170.031 22.344L167.769 15.662L165.533 22.344H170.031ZM197.495 14.336C199.298 14.336 200.728 14.882 201.785 15.974C202.86 17.066 203.397 18.5827 203.397 20.524V29H198.977V21.122C198.977 20.186 198.726 19.4667 198.223 18.964C197.738 18.444 197.062 18.184 196.195 18.184C195.328 18.184 194.644 18.444 194.141 18.964C193.656 19.4667 193.413 20.186 193.413 21.122V29H188.993V21.122C188.993 20.186 188.742 19.4667 188.239 18.964C187.754 18.444 187.078 18.184 186.211 18.184C185.344 18.184 184.66 18.444 184.157 18.964C183.672 19.4667 183.429 20.186 183.429 21.122V29H178.983V14.492H183.429V16.312C183.88 15.7053 184.469 15.2287 185.197 14.882C185.925 14.518 186.748 14.336 187.667 14.336C188.759 14.336 189.73 14.57 190.579 15.038C191.446 15.506 192.122 16.1733 192.607 17.04C193.11 16.2427 193.794 15.5927 194.661 15.09C195.528 14.5873 196.472 14.336 197.495 14.336ZM208.743 12.984C207.963 12.984 207.321 12.7587 206.819 12.308C206.333 11.84 206.091 11.268 206.091 10.592C206.091 9.89867 206.333 9.32667 206.819 8.876C207.321 8.408 207.963 8.174 208.743 8.174C209.505 8.174 210.129 8.408 210.615 8.876C211.117 9.32667 211.369 9.89867 211.369 10.592C211.369 11.268 211.117 11.84 210.615 12.308C210.129 12.7587 209.505 12.984 208.743 12.984ZM210.953 14.492V29H206.507V14.492H210.953ZM219.687 14.284C220.709 14.284 221.602 14.492 222.365 14.908C223.145 15.324 223.743 15.87 224.159 16.546V14.492H228.605V28.974C228.605 30.3087 228.336 31.5133 227.799 32.588C227.279 33.68 226.473 34.5467 225.381 35.188C224.306 35.8293 222.963 36.15 221.351 36.15C219.201 36.15 217.459 35.6387 216.125 34.616C214.79 33.6107 214.027 32.2413 213.837 30.508H218.231C218.369 31.0627 218.699 31.496 219.219 31.808C219.739 32.1373 220.38 32.302 221.143 32.302C222.061 32.302 222.789 32.0333 223.327 31.496C223.881 30.976 224.159 30.1353 224.159 28.974V26.92C223.725 27.596 223.127 28.1507 222.365 28.584C221.602 29 220.709 29.208 219.687 29.208C218.491 29.208 217.407 28.9047 216.437 28.298C215.466 27.674 214.695 26.7987 214.123 25.672C213.568 24.528 213.291 23.2107 213.291 21.72C213.291 20.2293 213.568 18.9207 214.123 17.794C214.695 16.6673 215.466 15.8007 216.437 15.194C217.407 14.5873 218.491 14.284 219.687 14.284ZM224.159 21.746C224.159 20.6367 223.847 19.7613 223.223 19.12C222.616 18.4787 221.871 18.158 220.987 18.158C220.103 18.158 219.349 18.4787 218.725 19.12C218.118 19.744 217.815 20.6107 217.815 21.72C217.815 22.8293 218.118 23.7133 218.725 24.372C219.349 25.0133 220.103 25.334 220.987 25.334C221.871 25.334 222.616 25.0133 223.223 24.372C223.847 23.7307 224.159 22.8553 224.159 21.746ZM238.425 29.208C237.004 29.208 235.721 28.9047 234.577 28.298C233.45 27.6913 232.558 26.8247 231.899 25.698C231.258 24.5713 230.937 23.254 230.937 21.746C230.937 20.2553 231.266 18.9467 231.925 17.82C232.584 16.676 233.485 15.8007 234.629 15.194C235.773 14.5873 237.056 14.284 238.477 14.284C239.898 14.284 241.181 14.5873 242.325 15.194C243.469 15.8007 244.37 16.676 245.029 17.82C245.688 18.9467 246.017 20.2553 246.017 21.746C246.017 23.2367 245.679 24.554 245.003 25.698C244.344 26.8247 243.434 27.6913 242.273 28.298C241.129 28.9047 239.846 29.208 238.425 29.208ZM238.425 25.36C239.274 25.36 239.994 25.048 240.583 24.424C241.19 23.8 241.493 22.9073 241.493 21.746C241.493 20.5847 241.198 19.692 240.609 19.068C240.037 18.444 239.326 18.132 238.477 18.132C237.61 18.132 236.891 18.444 236.319 19.068C235.747 19.6747 235.461 20.5673 235.461 21.746C235.461 22.9073 235.738 23.8 236.293 24.424C236.865 25.048 237.576 25.36 238.425 25.36Z" fill="#232F61"/>
<path d="M7.65281 26.3198C6.69229 26.7511 4.8346 27.4373 3.88605 26.6154C3.22683 26.0442 3.26349 24.6041 3.31038 23.8169C3.45929 21.3249 4.87575 18.8671 6.37328 16.9356C8.16363 14.627 10.8432 12.8653 13.7631 12.7668C15.9798 12.692 18.1634 13.5816 19.8942 14.9684C21.6249 16.3552 22.9326 18.2119 23.937 20.1891C24.4272 21.1538 24.8579 22.1852 24.8744 23.2672C24.8906 24.3492 24.4122 25.4965 23.4612 26.0126C22.6987 26.4264 21.7569 26.3777 20.9318 26.1096C20.1067 25.8417 19.3632 25.3753 18.5992 24.964C17.1899 24.2055 15.6263 23.6149 14.029 23.7119C11.7196 23.8526 9.76367 25.372 7.65281 26.3198Z" fill="#232F61"/>
<path d="M5.46221 14.1433C5.74581 16.4806 3.97017 17.7521 2.15663 15.995C1.04446 14.9175 0.178717 13.0007 0.0235771 11.4595C-0.0544918 10.6828 0.0405378 9.80508 0.62618 9.28902C1.18738 8.79442 2.06484 8.79168 2.73454 9.12515C3.40424 9.45863 3.89535 10.068 4.2812 10.709C4.90999 11.7538 5.3153 12.9326 5.46221 14.1433Z" fill="#232F61"/>
<path d="M12.167 7.84918C12.5406 9.42228 12.0969 11.8502 9.97155 11.6716C7.42745 11.4578 7.13188 7.06774 7.40699 5.25869C7.51 4.58026 7.77364 3.82277 8.41341 3.57484C8.85389 3.40399 9.36695 3.53518 9.7558 3.80381C10.1444 4.07219 10.4312 4.46154 10.6989 4.85088C11.3321 5.77349 11.9083 6.7602 12.167 7.84918Z" fill="#232F61"/>
<path d="M21.0137 6.82031C21.0367 5.77798 20.8042 4.68377 20.1198 3.89734C19.4354 3.11091 18.2257 2.73104 17.3018 3.21417C16.3428 3.71551 15.9899 4.89877 15.8317 5.96904C15.6167 7.42241 15.2698 10.0932 16.3313 11.3176C16.9958 12.0841 17.9922 11.6853 18.7542 11.2426C20.249 10.3736 20.9776 8.47647 21.0137 6.82031Z" fill="#232F61"/>
<path d="M27.274 16.3564C25.7773 17.7681 22.7178 17.3307 22.988 14.8956C23.1705 13.2484 24.2917 11.5513 25.3078 10.2875C25.9277 9.51678 26.8345 8.7725 27.8001 8.98726C28.5658 9.15761 29.0926 9.91336 29.2265 10.6863C29.3602 11.4593 29.1774 12.2494 28.9696 13.0059C28.6336 14.2286 28.1966 15.4864 27.274 16.3564Z" fill="#232F61"/>
</svg>
